<svg xmlns="http://www.w3.org/2000/svg" width="200" height="200" class="icon" p-id="2399" t="1687511200804" version="1.1" viewBox="0 0 1024 1024"><path fill="#fff" d="M512 64c123.712 0 224 101.76 224 227.392V384h69.312c32.448 0 58.688 28.672 58.688 64v448c0 35.328-26.24 64-58.688 64H218.688c-32.448 0-58.688-28.672-58.688-64V448c0-35.328 26.24-64 58.688-64H288V291.392C288 165.76 388.288 64 512 64z m288 384h-576v448h576V448zM448 672v-128h128v128h-32v128h-64v-128H448zM512 128C423.872 128 352 200.96 352 291.392V384h320V291.392C672 200.96 600.128 128 512 128z" p-id="2400"/></svg>